<?xml version="1.0" encoding="utf-8"?>
<!-- Generator: Adobe Illustrator 23.0.1, SVG Export Plug-In . SVG Version: 6.00 Build 0)  -->
<svg version="1.1" id="Layer_1" xmlns="http://www.w3.org/2000/svg" xmlns:xlink="http://www.w3.org/1999/xlink" x="0px" y="0px"
	 viewBox="0 0 402 177" style="enable-background:new 0 0 402 177;" xml:space="preserve">
<style type="text/css">
	.st0{fill:#636466;}
	.st1{fill:#CF3339;}
	.st2{fill:#FFFFFF;}
</style>
<path class="st0" d="M385.14,167.8c-0.45,4.53-3.62,8.2-7.1,8.2H6.53c-3.47,0-5.92-3.67-5.48-8.2l3.31-33.5
	c0.45-4.53,3.62-8.2,7.1-8.2h371.51c3.47,0,5.92,3.67,5.48,8.2L385.14,167.8z"/>
<g>
	<path class="st1" d="M394.2,5.21c3.75,0,6.8,3.05,6.8,6.8c0,3.75-3.05,6.8-6.8,6.8c-3.75,0-6.8-3.05-6.8-6.8
		C387.41,8.26,390.46,5.21,394.2,5.21z M394.2,17.85c3.23,0,5.84-2.61,5.84-5.84c0-3.23-2.61-5.84-5.84-5.84
		c-3.23,0-5.84,2.61-5.84,5.84C388.36,15.24,390.97,17.85,394.2,17.85z M391.7,8h2.99c1.78,0,2.66,0.75,2.66,2.24
		s-0.95,2.1-1.96,2.28l2.26,3.49h-1.19l-2.17-3.47h-1.64v3.47h-0.95V8z M392.66,11.58h1.49c1.12,0,2.26-0.05,2.26-1.38
		c0-0.99-0.9-1.25-1.85-1.25h-1.89V11.58z"/>
</g>
<g>
	<path class="st1" d="M38.62,2.21h91.41c31.88,0,37.62,16.02,35,37.48l-1.15,9.37c-2,16.32-11.39,35.07-35.11,35.07H62.14
		l-3.37,27.51H25.23L38.62,2.21z M65.47,56.93h52.12c7.86,0,11.51-5.14,12.3-11.64l0.52-4.23c0.91-7.41-2.2-11.64-12.32-11.64H68.83
		L65.47,56.93z"/>
	<path class="st1" d="M189.55,2.21h33.54L209.7,111.64h-33.54L189.55,2.21z"/>
	<path class="st1" d="M240.45,40.6C244.37,8.56,263.27,1,293.49,1h39.43c47.74,0,52.68,10.28,48.59,41.26h-33.54l0.37-3.02
		c0.96-7.86-4.5-10.13-14.47-10.13H297.3c-17.68,0-22.02,8.31-23.68,21.92l-1.44,11.79c-1.94,15.87,0.64,21.92,16.51,21.92h35.81
		c15.11,0,19.83-1.51,21.49-15.11h33.54l-1.26,10.28c-2.26,18.44-10.68,32.95-44.37,32.95h-54.09c-30.22,0-47.27-7.56-43.35-39.6
		L240.45,40.6z"/>
</g>
<g>
	<path class="st2" d="M26.36,139.47h6.95l2.25,17.06h0.06l8.58-17.06h6.6l3.21,17.06h0.06l7.62-17.06h6.96l-11.18,23.21h-8.17
		l-3.01-15.33h-0.06l-7.83,15.33h-8.17L26.36,139.47z"/>
	<path class="st2" d="M71.79,139.47h7.12l-3.65,23.21h-7.12L71.79,139.47z"/>
	<path class="st2" d="M83.23,139.47h21.47c5.48,0,6.53,2.72,5.87,6.89l-0.23,1.48c-0.49,3.11-1.48,4.94-4.87,5.71l-0.01,0.06
		c2.06,0.39,3.67,1.31,3.07,5.13l-0.62,3.94h-7.12l0.44-2.79c0.38-2.44-0.2-3.24-2.41-3.24H87.65l-0.95,6.03h-7.12L83.23,139.47z
		 M88.55,150.89h11.76c1.92,0,2.75-0.77,3.01-2.44l0.12-0.77c0.32-2.05-0.64-2.44-2.89-2.44H89.44L88.55,150.89z"/>
	<path class="st2" d="M115.74,139.47h25.38l-0.85,5.39h-18.27l-0.58,3.72h17.31l-0.76,4.81h-17.31l-0.58,3.72h18.68l-0.88,5.58
		h-25.8L115.74,139.47z"/>
	<path class="st2" d="M159.04,154.58c0.64-3.66,1.84-4.97,5.83-5.07l0.01-0.06c-2.02-1.41-2.03-2.15-1.6-4.9
		c0.7-4.46,1.96-5.32,9.2-5.32h5.51c8.08,0,9.26,1.03,8.4,6.51l-0.2,1.28h-6.15l0.18-1.12c0.2-1.28-0.51-1.86-2.88-1.86h-4.9
		c-1.99,0-2.57,0.26-2.75,1.41c-0.14,0.9-0.03,1.22,1.24,1.92l10.63,5.96l0.48-3.08h5.77l-0.51,3.27c-0.21,1.31-0.43,1.92-0.68,2.66
		l3.8,2.15l-2.64,4.36l-3.74-2.12c-1.75,2.18-5.09,2.37-8.1,2.37h-9.58c-5.22,0-8.41-1.35-7.59-6.57L159.04,154.58z M178.57,157.94
		c0.13,0,0.17-0.06,0.19-0.19l-10.05-5.58c-0.24-0.13-0.49-0.16-1.03-0.16c-1.03,0-1.94,0.29-2.35,2.92
		c-0.39,2.47,0.68,3.01,3.05,3.01H178.57z"/>
	<path class="st2" d="M209.71,147.62c1.07-6.8,5.14-8.4,11.55-8.4h8.37c10.13,0,11.1,2.18,10,8.75h-7.12l0.1-0.64
		c0.26-1.67-0.88-2.15-3-2.15h-7.76c-3.75,0-4.73,1.76-5.19,4.65l-0.39,2.5c-0.53,3.37-0.03,4.65,3.34,4.65h7.6
		c3.21,0,4.22-0.32,4.67-3.21H239l-0.34,2.18c-0.62,3.91-2.51,6.99-9.66,6.99h-11.47c-6.41,0-9.97-1.6-8.9-8.4L209.71,147.62z"/>
	<path class="st2" d="M255.4,139.47h9.26l9.11,23.21h-7.92l-1.57-4.1h-14.42l-2.73,4.1h-7.95L255.4,139.47z M253.31,153.58h9.1
		l-3.24-8.72L253.31,153.58z"/>
	<path class="st2" d="M280.28,139.47h20.48c5.67,0,8.19,1.54,7.47,6.09c-0.63,3.98-2.19,4.75-4.27,5.32l-0.02,0.1
		c3.05,0.39,3.94,2.05,3.39,5.55c-0.8,5.1-3.98,6.16-8.05,6.16h-22.66L280.28,139.47z M284.62,157.11h12.76
		c1.54,0,2.62-0.35,2.83-1.7c0.25-1.57-0.72-1.92-2.26-1.92h-12.76L284.62,157.11z M285.95,148.68h12.6c1.31,0,2.16-0.48,2.36-1.79
		c0.21-1.35-0.48-1.83-1.8-1.83h-12.6L285.95,148.68z"/>
	<path class="st2" d="M313.73,139.47h7.12l-2.71,17.25h15.99l-0.94,5.96h-23.11L313.73,139.47z"/>
	<path class="st2" d="M339.9,139.47h25.38l-0.85,5.39h-18.27l-0.58,3.72h17.31l-0.76,4.81h-17.31l-0.58,3.72h18.69l-0.88,5.58h-25.8
		L339.9,139.47z"/>
</g>
</svg>
