<?xml version="1.0" encoding="utf-8"?>
<!-- Generator: Adobe Illustrator 16.0.0, SVG Export Plug-In . SVG Version: 6.00 Build 0)  -->
<!DOCTYPE svg PUBLIC "-//W3C//DTD SVG 1.1//EN" "http://www.w3.org/Graphics/SVG/1.1/DTD/svg11.dtd">
<svg version="1.1" id="Layer_1" xmlns="http://www.w3.org/2000/svg" xmlns:xlink="http://www.w3.org/1999/xlink" x="0px" y="0px"
	 width="187.2px" height="57.6px" viewBox="0 0 187.2 57.6" enable-background="new 0 0 187.2 57.6" xml:space="preserve">
<g>
	<polygon fill="#010101" points="87.347,33.141 86.028,33.502 84.47,33.741 82.911,33.861 81.232,33.981 79.674,33.981 
		78.355,33.981 77.157,33.981 76.198,33.981 74.879,33.981 73.081,33.861 71.043,33.502 68.885,33.021 67.806,32.781 66.727,32.301 
		65.768,31.82 64.929,31.341 64.21,30.74 63.61,30.021 63.131,29.3 62.891,28.46 62.891,8.054 51.382,8.054 51.382,28.34 
		51.382,28.94 51.622,29.54 51.742,30.021 51.982,30.5 52.701,31.461 53.54,32.301 54.619,33.141 55.938,33.861 57.257,34.461 
		58.815,34.941 60.493,35.422 62.292,35.902 64.09,36.143 66.008,36.502 68.046,36.622 69.964,36.742 72.002,36.862 74.04,36.862 
		75.838,36.862 77.517,36.862 79.314,36.862 81.113,36.742 82.791,36.622 84.47,36.622 85.908,36.382 87.347,36.262 	"/>
	<polygon fill="#010101" points="3.55,36.382 28.725,7.094 54.739,36.382 42.631,36.382 25.488,17.177 9.064,36.382 	"/>
	<polygon fill="#010101" points="127.146,36.382 152.202,7.094 178.336,36.382 166.108,36.382 149.085,17.177 132.662,36.382 	"/>
	<polygon fill="#010101" points="17.816,45.744 17.696,45.625 17.576,45.504 17.576,45.385 17.456,45.265 17.216,45.145 
		17.097,45.145 16.977,45.145 16.737,45.145 16.617,45.145 16.377,45.145 16.257,45.265 16.018,45.385 15.897,45.504 15.897,45.625 
		15.778,45.865 15.778,45.984 15.778,46.225 15.897,46.345 16.018,46.465 16.138,46.585 16.257,46.705 16.377,46.824 16.617,46.945 
		16.737,46.945 17.097,47.186 17.456,47.305 17.696,47.425 17.936,47.545 18.176,47.785 18.295,48.025 18.415,48.266 18.535,48.506 
		18.535,48.865 18.535,49.226 18.415,49.586 18.295,49.945 18.056,50.186 17.696,50.426 17.456,50.546 17.097,50.666 16.617,50.786 
		16.377,50.666 16.018,50.666 15.658,50.546 15.418,50.306 15.179,50.066 15.059,49.826 14.938,49.466 14.819,49.226 15.418,48.985 
		15.538,49.226 15.538,49.466 15.658,49.586 15.897,49.826 16.018,49.945 16.257,50.066 16.377,50.066 16.617,50.066 16.856,50.066 
		17.097,50.066 17.336,49.945 17.576,49.826 17.696,49.586 17.816,49.346 17.936,49.226 17.936,48.985 17.936,48.746 17.816,48.506 
		17.696,48.266 17.576,48.145 17.336,48.025 17.216,47.905 16.977,47.785 16.737,47.785 16.377,47.545 16.138,47.425 15.897,47.305 
		15.658,47.186 15.538,46.945 15.298,46.824 15.179,46.585 15.179,46.345 15.059,45.984 15.179,45.625 15.179,45.385 15.418,45.145 
		15.658,44.904 15.897,44.664 16.138,44.545 16.497,44.545 16.737,44.424 17.097,44.545 17.336,44.545 17.456,44.664 17.696,44.664 
		17.936,44.904 18.056,45.024 18.176,45.145 18.415,45.385 	"/>
	<polygon fill="#010101" points="29.804,44.545 30.643,44.545 32.201,47.305 33.64,44.545 34.479,44.545 32.441,48.025 
		32.441,50.666 31.842,50.666 31.842,48.025 	"/>
	<polygon fill="#010101" points="48.745,45.744 48.625,45.625 48.505,45.504 48.386,45.385 48.266,45.265 48.146,45.145 
		48.025,45.145 47.786,45.145 47.666,45.145 47.426,45.145 47.307,45.145 47.066,45.265 46.947,45.385 46.827,45.504 46.707,45.625 
		46.707,45.865 46.587,45.984 46.707,46.225 46.707,46.345 46.827,46.465 46.947,46.585 47.066,46.705 47.307,46.824 47.426,46.945 
		47.546,46.945 48.025,47.186 48.266,47.305 48.505,47.425 48.745,47.545 48.985,47.785 49.225,48.025 49.345,48.266 49.464,48.506 
		49.464,48.865 49.464,49.226 49.345,49.586 49.104,49.945 48.865,50.186 48.625,50.426 48.266,50.546 47.906,50.666 47.546,50.786 
		47.187,50.666 46.827,50.666 46.587,50.546 46.348,50.306 46.107,50.066 45.868,49.826 45.748,49.466 45.628,49.226 46.348,48.985 
		46.348,49.226 46.467,49.466 46.587,49.586 46.707,49.826 46.827,49.945 47.066,50.066 47.307,50.066 47.546,50.066 47.786,50.066 
		48.025,50.066 48.266,49.945 48.386,49.826 48.505,49.586 48.625,49.346 48.745,49.226 48.745,48.985 48.745,48.746 48.625,48.506 
		48.625,48.266 48.386,48.145 48.266,48.025 48.025,47.905 47.906,47.785 47.666,47.785 47.307,47.545 47.066,47.425 46.827,47.305 
		46.587,47.186 46.348,46.945 46.228,46.824 46.107,46.585 45.988,46.345 45.988,45.984 45.988,45.625 46.107,45.385 46.228,45.145 
		46.467,44.904 46.707,44.664 47.066,44.545 47.307,44.545 47.666,44.424 47.906,44.545 48.146,44.545 48.386,44.664 48.625,44.664 
		48.745,44.904 48.985,45.024 49.104,45.145 49.225,45.385 	"/>
	<polygon fill="#010101" points="62.651,50.666 62.052,50.666 62.052,45.145 60.493,45.145 60.493,44.545 64.21,44.545 
		64.21,45.145 62.651,45.145 	"/>
	<polygon fill="#010101" points="75.718,44.545 78.835,44.545 78.835,45.145 76.317,45.145 76.317,46.945 78.715,46.945 
		78.715,47.665 76.317,47.665 76.317,50.066 78.835,50.066 78.835,50.666 75.718,50.666 	"/>
	<polygon fill="#010101" points="91.542,44.184 93.7,49.346 95.979,44.184 97.177,50.666 96.457,50.666 95.738,46.585 
		95.738,46.585 93.7,50.906 91.782,46.585 91.782,46.585 91.063,50.666 90.344,50.666 	"/>
	<polygon fill="#010101" points="111.562,45.744 111.443,45.625 111.322,45.504 111.203,45.385 111.083,45.265 110.963,45.145 
		110.844,45.145 110.604,45.145 110.483,45.145 110.244,45.145 110.124,45.145 109.885,45.265 109.764,45.385 109.645,45.504 
		109.524,45.625 109.524,45.865 109.524,45.984 109.524,46.225 109.524,46.345 109.645,46.465 109.764,46.585 109.885,46.705 
		110.124,46.824 110.244,46.945 110.363,46.945 110.844,47.186 111.083,47.305 111.322,47.425 111.683,47.545 111.803,47.785 
		112.042,48.025 112.162,48.266 112.281,48.506 112.281,48.865 112.281,49.226 112.162,49.586 111.922,49.945 111.683,50.186 
		111.443,50.426 111.083,50.546 110.723,50.666 110.363,50.786 110.004,50.666 109.645,50.666 109.404,50.546 109.165,50.306 
		108.926,50.066 108.686,49.826 108.565,49.466 108.445,49.226 109.165,48.985 109.165,49.226 109.285,49.466 109.404,49.586 
		109.524,49.826 109.764,49.945 109.885,50.066 110.124,50.066 110.363,50.066 110.604,50.066 110.844,50.066 111.083,49.945 
		111.203,49.826 111.322,49.586 111.443,49.346 111.562,49.226 111.562,48.985 111.562,48.746 111.562,48.506 111.443,48.266 
		111.203,48.145 111.083,48.025 110.844,47.905 110.723,47.785 110.483,47.785 110.124,47.545 109.885,47.425 109.645,47.305 
		109.404,47.186 109.165,46.945 109.045,46.824 108.926,46.585 108.805,46.345 108.805,45.984 108.805,45.625 108.926,45.385 
		109.045,45.145 109.285,44.904 109.524,44.664 109.885,44.545 110.124,44.545 110.483,44.424 110.723,44.545 110.963,44.545 
		111.203,44.664 111.443,44.664 111.562,44.904 111.803,45.024 111.922,45.145 112.042,45.385 	"/>
	<polygon fill="#010101" points="132.541,50.666 131.822,50.666 131.822,44.545 132.541,44.545 	"/>
	<polygon fill="#010101" points="144.41,44.305 149.085,49.226 149.085,44.545 149.805,44.545 149.805,50.906 145.01,45.984 
		145.01,50.666 144.41,50.666 	"/>
	<polygon fill="#010101" points="165.149,45.865 165.029,45.744 164.789,45.625 164.55,45.385 164.311,45.265 164.07,45.265 
		163.83,45.145 163.591,45.145 163.352,45.145 162.871,45.145 162.393,45.265 162.032,45.504 161.673,45.865 161.312,46.225 
		161.073,46.705 160.953,47.064 160.953,47.545 160.953,48.145 161.073,48.506 161.312,48.985 161.673,49.346 162.032,49.705 
		162.393,49.945 162.871,50.066 163.352,50.066 163.591,50.066 163.83,50.066 164.07,49.945 164.311,49.945 164.55,49.826 
		164.789,49.586 165.029,49.466 165.149,49.346 165.149,50.186 165.029,50.306 164.789,50.426 164.55,50.546 164.311,50.546 
		164.07,50.666 163.83,50.666 163.591,50.786 163.352,50.786 162.752,50.666 162.152,50.546 161.673,50.186 161.193,49.826 
		160.834,49.346 160.474,48.865 160.354,48.266 160.234,47.665 160.354,46.945 160.474,46.345 160.834,45.865 161.193,45.385 
		161.673,45.024 162.152,44.664 162.752,44.545 163.352,44.424 163.591,44.424 163.83,44.545 164.07,44.545 164.311,44.664 
		164.55,44.664 164.789,44.784 165.029,44.904 165.149,45.024 	"/>
	<polygon fill="#010101" points="166.947,50.306 166.947,50.426 166.947,50.426 166.828,50.546 166.828,50.546 166.707,50.666 
		166.707,50.666 166.588,50.786 166.468,50.786 166.468,50.786 166.348,50.666 166.229,50.666 166.229,50.546 166.108,50.546 
		166.108,50.426 166.108,50.426 166.108,50.306 166.108,50.186 166.108,50.066 166.108,50.066 166.229,49.945 166.229,49.945 
		166.348,49.826 166.468,49.826 166.468,49.826 166.588,49.826 166.707,49.826 166.707,49.945 166.828,49.945 166.828,50.066 
		166.947,50.066 166.947,50.186 	"/>
	<polygon fill="#010101" points="90.583,28.34 90.583,8.054 87.347,8.054 87.347,32.781 87.946,32.421 88.545,32.061 89.025,31.58 
		89.504,30.98 89.864,30.381 90.224,29.66 90.464,29.06 	"/>
	<polygon fill="#010101" points="115.519,23.179 117.557,23.059 119.355,22.818 121.152,22.578 122.711,22.338 124.15,21.978 
		125.349,21.498 126.548,21.018 127.507,20.418 128.346,19.938 129.064,19.217 129.664,18.617 130.023,18.017 130.384,17.297 
		130.504,16.577 130.504,15.856 130.504,15.136 130.264,14.416 129.904,13.816 129.545,13.096 128.945,12.375 128.227,11.775 
		127.507,11.175 126.548,10.575 125.588,10.095 124.51,9.615 123.311,9.135 121.992,8.774 120.554,8.534 119.115,8.294 
		117.557,8.174 115.879,8.054 114.08,8.054 95.979,8.054 95.979,9.015 95.979,11.295 95.979,14.776 95.979,18.617 95.979,22.458 
		95.979,25.939 95.979,28.34 95.979,29.18 95.858,29.78 95.738,30.381 95.498,30.86 95.259,31.461 94.42,32.421 93.46,33.502 
		92.262,34.342 90.943,35.182 89.385,35.902 87.826,36.382 99.095,36.382 99.095,10.935 106.527,10.935 108.086,10.935 
		109.764,11.055 111.203,11.175 112.521,11.415 113.721,11.655 114.919,11.896 115.998,12.255 116.838,12.735 117.676,13.096 
		118.396,13.576 118.995,14.056 119.475,14.536 119.834,15.016 120.074,15.496 120.193,16.097 120.193,16.577 119.954,17.177 
		119.715,17.657 119.355,18.137 118.875,18.617 118.156,19.097 117.438,19.577 116.478,20.058 115.398,20.418 114.199,20.778 
		112.881,21.138 111.443,21.378 109.764,21.618 108.086,21.738 106.168,21.858 104.13,21.858 101.852,21.858 119.715,36.382 
		131.703,36.382 	"/>
	<path fill="#010101" d="M179.535,33.981v-0.479l0.119-0.48l0.239-0.359l0.359-0.36l0.359-0.358l0.359-0.24l0.479-0.121h0.479h0.6
		l0.359,0.121l0.479,0.24l0.358,0.358l0.359,0.36l0.121,0.359l0.239,0.48v0.479v0.601l-0.239,0.359l-0.121,0.479l-0.359,0.359
		l-0.358,0.239l-0.479,0.24l-0.359,0.24h-0.6h-0.479l-0.479-0.24l-0.359-0.24l-0.359-0.239l-0.359-0.359l-0.239-0.479l-0.119-0.359
		V33.981L179.535,33.981z M184.09,33.981l-0.119-0.36l-0.12-0.359l-0.119-0.36l-0.24-0.359l-0.359-0.24l-0.358-0.239l-0.359-0.119
		h-0.479h-0.359l-0.359,0.119l-0.358,0.239l-0.359,0.24l-0.24,0.359l-0.239,0.36l-0.119,0.359v0.36v0.479l0.119,0.361l0.239,0.358
		l0.24,0.36l0.359,0.239l0.358,0.121l0.359,0.118l0.359,0.121l0.479-0.121l0.359-0.118l0.358-0.121l0.359-0.239l0.24-0.36
		l0.119-0.358l0.12-0.361L184.09,33.981L184.09,33.981z M183.131,35.302h-0.479l-0.721-1.2h-0.479v1.2h-0.359v-2.641h1.198h0.12
		h0.119l0.239,0.12h0.12l0.12,0.119l0.119,0.121v0.118v0.24v0.24v0.12l-0.119,0.12l-0.12,0.119h-0.12l-0.118,0.12h-0.121h-0.239
		L183.131,35.302L183.131,35.302z M181.933,33.741h0.12h0.119h0.12h0.239l0.121-0.12h0.119v-0.119v-0.121v-0.119l0,0l-0.119-0.121
		l0,0l-0.121-0.118h-0.119h-0.12h-0.12h-0.719v0.72L181.933,33.741L181.933,33.741z"/>
</g>
</svg>
